<svg xmlns="http://www.w3.org/2000/svg" xmlns:xlink="http://www.w3.org/1999/xlink" width="83" zoomAndPan="magnify" viewBox="0 0 62.25 67.499996" height="90" preserveAspectRatio="xMidYMid meet" version="1.0"><defs><clipPath id="8345c25b87"><path d="M 1.261719 4.007812 L 60.410156 4.007812 L 60.410156 63.15625 L 1.261719 63.15625 Z M 1.261719 4.007812 " clip-rule="nonzero"/></clipPath><clipPath id="8e1b663923"><path d="M 28.503906 18.347656 L 33.882812 18.347656 L 33.882812 23.726562 L 28.503906 23.726562 Z M 28.503906 18.347656 " clip-rule="nonzero"/></clipPath></defs><g clip-path="url(#8345c25b87)"><path fill="#662d91" d="M 60.410156 33.582031 C 60.410156 34.550781 60.363281 35.519531 60.265625 36.480469 C 60.171875 37.445312 60.03125 38.402344 59.839844 39.351562 C 59.652344 40.304688 59.417969 41.242188 59.136719 42.167969 C 58.855469 43.09375 58.527344 44.007812 58.15625 44.902344 C 57.789062 45.796875 57.375 46.671875 56.917969 47.523438 C 56.460938 48.378906 55.964844 49.207031 55.425781 50.015625 C 54.886719 50.820312 54.3125 51.597656 53.695312 52.34375 C 53.082031 53.09375 52.433594 53.8125 51.746094 54.496094 C 51.0625 55.179688 50.34375 55.832031 49.597656 56.445312 C 48.847656 57.058594 48.070312 57.636719 47.265625 58.171875 C 46.460938 58.710938 45.628906 59.210938 44.777344 59.664062 C 43.921875 60.121094 43.046875 60.535156 42.152344 60.90625 C 41.257812 61.277344 40.347656 61.601562 39.417969 61.882812 C 38.492188 62.164062 37.554688 62.402344 36.605469 62.589844 C 35.65625 62.777344 34.699219 62.921875 33.734375 63.015625 C 32.769531 63.109375 31.804688 63.15625 30.835938 63.15625 C 29.867188 63.15625 28.898438 63.109375 27.9375 63.015625 C 26.972656 62.921875 26.015625 62.777344 25.066406 62.589844 C 24.113281 62.402344 23.175781 62.164062 22.25 61.882812 C 21.324219 61.601562 20.410156 61.277344 19.515625 60.90625 C 18.621094 60.535156 17.746094 60.121094 16.894531 59.664062 C 16.039062 59.210938 15.210938 58.710938 14.402344 58.171875 C 13.597656 57.636719 12.820312 57.058594 12.074219 56.445312 C 11.324219 55.832031 10.605469 55.179688 9.921875 54.496094 C 9.238281 53.8125 8.585938 53.09375 7.972656 52.34375 C 7.359375 51.597656 6.78125 50.820312 6.242188 50.015625 C 5.707031 49.207031 5.207031 48.378906 4.753906 47.523438 C 4.296875 46.671875 3.882812 45.796875 3.511719 44.902344 C 3.140625 44.007812 2.816406 43.09375 2.535156 42.167969 C 2.253906 41.242188 2.015625 40.304688 1.828125 39.351562 C 1.640625 38.402344 1.496094 37.445312 1.402344 36.480469 C 1.308594 35.519531 1.261719 34.550781 1.261719 33.582031 C 1.261719 32.613281 1.308594 31.648438 1.402344 30.683594 C 1.496094 29.71875 1.640625 28.761719 1.828125 27.8125 C 2.015625 26.863281 2.253906 25.925781 2.535156 24.996094 C 2.816406 24.070312 3.140625 23.160156 3.511719 22.265625 C 3.882812 21.371094 4.296875 20.496094 4.753906 19.640625 C 5.207031 18.789062 5.707031 17.957031 6.242188 17.152344 C 6.78125 16.347656 7.359375 15.570312 7.972656 14.820312 C 8.585938 14.074219 9.238281 13.355469 9.921875 12.671875 C 10.605469 11.984375 11.324219 11.335938 12.074219 10.722656 C 12.820312 10.105469 13.597656 9.53125 14.402344 8.992188 C 15.210938 8.453125 16.039062 7.957031 16.894531 7.5 C 17.746094 7.042969 18.621094 6.628906 19.515625 6.257812 C 20.410156 5.890625 21.324219 5.5625 22.25 5.28125 C 23.175781 5 24.113281 4.765625 25.066406 4.578125 C 26.015625 4.386719 26.972656 4.246094 27.9375 4.152344 C 28.898438 4.054688 29.867188 4.007812 30.835938 4.007812 C 31.804688 4.007812 32.769531 4.054688 33.734375 4.152344 C 34.699219 4.246094 35.65625 4.386719 36.605469 4.578125 C 37.554688 4.765625 38.492188 5 39.417969 5.28125 C 40.347656 5.5625 41.257812 5.890625 42.152344 6.257812 C 43.046875 6.628906 43.921875 7.042969 44.777344 7.5 C 45.628906 7.957031 46.460938 8.453125 47.265625 8.992188 C 48.070312 9.53125 48.847656 10.105469 49.597656 10.722656 C 50.34375 11.335938 51.0625 11.984375 51.746094 12.671875 C 52.433594 13.355469 53.082031 14.074219 53.695312 14.820312 C 54.3125 15.570312 54.886719 16.347656 55.425781 17.152344 C 55.964844 17.957031 56.460938 18.789062 56.917969 19.640625 C 57.375 20.496094 57.789062 21.371094 58.15625 22.265625 C 58.527344 23.160156 58.855469 24.070312 59.136719 24.996094 C 59.417969 25.925781 59.652344 26.863281 59.839844 27.8125 C 60.03125 28.761719 60.171875 29.71875 60.265625 30.683594 C 60.363281 31.648438 60.410156 32.613281 60.410156 33.582031 Z M 60.410156 33.582031 " fill-opacity="1" fill-rule="nonzero"/></g><path fill="#ffffff" d="M 46.34375 23.96875 L 31.492188 13.773438 C 31.292969 13.636719 31.074219 13.570312 30.835938 13.570312 C 30.59375 13.570312 30.375 13.636719 30.179688 13.773438 L 15.328125 23.96875 C 15.117188 24.113281 14.972656 24.304688 14.890625 24.542969 C 14.808594 24.785156 14.804688 25.023438 14.878906 25.265625 C 14.953125 25.507812 15.09375 25.707031 15.296875 25.855469 C 15.5 26.007812 15.730469 26.082031 15.984375 26.082031 L 45.6875 26.082031 C 45.9375 26.082031 46.167969 26.007812 46.371094 25.855469 C 46.574219 25.707031 46.714844 25.507812 46.789062 25.265625 C 46.867188 25.023438 46.863281 24.785156 46.777344 24.542969 C 46.695312 24.304688 46.550781 24.113281 46.34375 23.96875 Z M 46.34375 23.96875 " fill-opacity="1" fill-rule="nonzero"/><path fill="#ffffff" d="M 19.789062 27.917969 L 22.117188 27.917969 C 22.28125 27.917969 22.441406 27.953125 22.597656 28.015625 C 22.75 28.078125 22.886719 28.171875 23.003906 28.289062 C 23.121094 28.40625 23.210938 28.542969 23.277344 28.695312 C 23.339844 28.847656 23.371094 29.007812 23.371094 29.175781 L 23.371094 40.167969 C 23.371094 40.332031 23.339844 40.492188 23.277344 40.648438 C 23.210938 40.800781 23.121094 40.9375 23.003906 41.054688 C 22.886719 41.171875 22.75 41.261719 22.597656 41.328125 C 22.441406 41.390625 22.28125 41.421875 22.117188 41.421875 L 19.789062 41.421875 C 19.621094 41.421875 19.460938 41.390625 19.308594 41.328125 C 19.152344 41.261719 19.019531 41.171875 18.898438 41.054688 C 18.78125 40.9375 18.691406 40.800781 18.628906 40.648438 C 18.5625 40.492188 18.53125 40.332031 18.53125 40.167969 L 18.53125 29.175781 C 18.53125 29.007812 18.5625 28.847656 18.628906 28.695312 C 18.691406 28.542969 18.78125 28.40625 18.898438 28.289062 C 19.019531 28.171875 19.152344 28.078125 19.308594 28.015625 C 19.460938 27.953125 19.621094 27.917969 19.789062 27.917969 Z M 19.789062 27.917969 " fill-opacity="1" fill-rule="nonzero"/><path fill="#ffffff" d="M 30.167969 27.917969 L 32.496094 27.917969 C 32.664062 27.917969 32.824219 27.953125 32.976562 28.015625 C 33.132812 28.078125 33.269531 28.171875 33.386719 28.289062 C 33.503906 28.40625 33.59375 28.542969 33.65625 28.695312 C 33.722656 28.847656 33.753906 29.007812 33.753906 29.175781 L 33.753906 40.167969 C 33.753906 40.332031 33.722656 40.492188 33.65625 40.648438 C 33.59375 40.800781 33.503906 40.9375 33.386719 41.054688 C 33.269531 41.171875 33.132812 41.261719 32.976562 41.328125 C 32.824219 41.390625 32.664062 41.421875 32.496094 41.421875 L 30.167969 41.421875 C 30.003906 41.421875 29.84375 41.390625 29.6875 41.328125 C 29.535156 41.261719 29.398438 41.171875 29.28125 41.054688 C 29.164062 40.9375 29.074219 40.800781 29.007812 40.648438 C 28.945312 40.492188 28.914062 40.332031 28.914062 40.167969 L 28.914062 29.175781 C 28.914062 29.007812 28.945312 28.847656 29.007812 28.695312 C 29.074219 28.542969 29.164062 28.40625 29.28125 28.289062 C 29.398438 28.171875 29.535156 28.078125 29.6875 28.015625 C 29.84375 27.953125 30.003906 27.917969 30.167969 27.917969 Z M 30.167969 27.917969 " fill-opacity="1" fill-rule="nonzero"/><path fill="#ffffff" d="M 39.554688 27.917969 L 41.882812 27.917969 C 42.050781 27.917969 42.210938 27.953125 42.363281 28.015625 C 42.515625 28.078125 42.652344 28.171875 42.769531 28.289062 C 42.890625 28.40625 42.980469 28.542969 43.042969 28.695312 C 43.105469 28.847656 43.140625 29.007812 43.140625 29.175781 L 43.140625 40.167969 C 43.140625 40.332031 43.105469 40.492188 43.042969 40.648438 C 42.980469 40.800781 42.890625 40.9375 42.769531 41.054688 C 42.652344 41.171875 42.515625 41.261719 42.363281 41.328125 C 42.210938 41.390625 42.050781 41.421875 41.882812 41.421875 L 39.554688 41.421875 C 39.386719 41.421875 39.226562 41.390625 39.074219 41.328125 C 38.921875 41.261719 38.785156 41.171875 38.667969 41.054688 C 38.550781 40.9375 38.457031 40.800781 38.394531 40.648438 C 38.332031 40.492188 38.300781 40.332031 38.300781 40.167969 L 38.300781 29.175781 C 38.300781 29.007812 38.332031 28.847656 38.394531 28.695312 C 38.457031 28.542969 38.550781 28.40625 38.667969 28.289062 C 38.785156 28.171875 38.921875 28.078125 39.074219 28.015625 C 39.226562 27.953125 39.386719 27.917969 39.554688 27.917969 Z M 39.554688 27.917969 " fill-opacity="1" fill-rule="nonzero"/><path fill="#ffffff" d="M 18.453125 43.261719 L 43.214844 43.261719 C 43.46875 43.261719 43.710938 43.308594 43.941406 43.40625 C 44.175781 43.503906 44.382812 43.640625 44.558594 43.820312 C 44.738281 43.996094 44.875 44.203125 44.972656 44.4375 C 45.070312 44.667969 45.117188 44.914062 45.117188 45.164062 L 45.117188 46.746094 C 45.117188 46.996094 45.070312 47.238281 44.972656 47.472656 C 44.875 47.707031 44.738281 47.914062 44.558594 48.089844 C 44.382812 48.269531 44.175781 48.40625 43.941406 48.503906 C 43.710938 48.601562 43.46875 48.648438 43.214844 48.648438 L 18.453125 48.648438 C 18.199219 48.648438 17.957031 48.601562 17.722656 48.503906 C 17.492188 48.40625 17.285156 48.269531 17.105469 48.089844 C 16.929688 47.914062 16.792969 47.707031 16.695312 47.472656 C 16.597656 47.238281 16.550781 46.996094 16.550781 46.746094 L 16.550781 45.164062 C 16.550781 44.914062 16.597656 44.667969 16.695312 44.4375 C 16.792969 44.203125 16.929688 43.996094 17.105469 43.820312 C 17.285156 43.640625 17.492188 43.503906 17.722656 43.40625 C 17.957031 43.308594 18.199219 43.261719 18.453125 43.261719 Z M 18.453125 43.261719 " fill-opacity="1" fill-rule="nonzero"/><g clip-path="url(#8e1b663923)"><path fill="#662d91" d="M 31.011719 18.347656 C 32.394531 18.347656 33.519531 19.46875 33.519531 20.855469 C 33.519531 22.238281 32.394531 23.359375 31.011719 23.359375 C 29.625 23.359375 28.503906 22.238281 28.503906 20.855469 C 28.503906 19.46875 29.625 18.347656 31.011719 18.347656 Z M 31.011719 18.347656 " fill-opacity="1" fill-rule="evenodd"/></g></svg>